<svg width="312" height="312" viewBox="0 0 312 312" fill="none" xmlns="http://www.w3.org/2000/svg">
<path fill-rule="evenodd" clip-rule="evenodd" d="M155.527 0L169.082 0.591822L182.534 2.3628L195.78 5.29945L208.72 9.37943L221.255 14.5717L233.29 20.8367L244.734 28.1267L255.498 36.3864L265.501 45.5528L274.667 55.5562L282.927 66.3204L290.217 77.7635L296.482 89.7984L301.674 102.334L305.754 115.274L308.691 128.52L310.462 141.972L311.054 155.527L310.462 169.082L308.691 182.534L305.754 195.78L301.674 208.72L296.482 221.255L290.217 233.29L282.927 244.734L274.667 255.498L265.501 265.501L255.498 274.667L244.734 282.927L233.29 290.217L221.255 296.482L208.72 301.674L195.78 305.754L182.534 308.691L169.082 310.462L155.527 311.054L141.972 310.462L128.52 308.691L115.274 305.754L102.334 301.674L89.7984 296.482L77.7635 290.217L66.3204 282.927L55.5562 274.667L45.5528 265.501L36.3864 255.498L28.1267 244.734L20.8367 233.29L14.5717 221.255L9.37943 208.72L5.29945 195.78L2.3628 182.534L0.591822 169.082L0 155.527L0.591822 141.972L2.3628 128.52L5.29945 115.274L9.37943 102.334L14.5717 89.7984L20.8367 77.7635L28.1267 66.3204L36.3864 55.5562L45.5528 45.5528L55.5562 36.3864L66.3204 28.1267L77.7635 20.8367L89.7984 14.5717L102.334 9.37943L115.274 5.29945L128.52 2.3628L141.972 0.591822L155.527 0ZM146.905 56.9758L138.348 58.1023L129.923 59.9702L121.692 62.5654L113.718 65.8681L106.063 69.8531L98.7844 74.4902L91.9375 79.744L85.5746 85.5746L79.744 91.9375L74.4902 98.7844L69.8531 106.063L65.8681 113.718L62.5654 121.692L59.9702 129.923L58.1023 138.348L56.9758 146.905L56.5993 155.527L56.9758 164.149L58.1023 172.706L59.9702 181.131L62.5654 189.362L65.8681 197.336L69.8531 204.991L74.4902 212.269L79.744 219.116L85.5745 225.479L91.9375 231.31L98.7844 236.564L106.063 241.201L113.718 245.186L121.692 248.489L129.923 251.084L138.348 252.952L146.905 254.078L155.527 254.455L164.149 254.078L172.706 252.952L181.131 251.084L189.362 248.489L197.336 245.186L204.991 241.201L212.269 236.564L219.116 231.31L225.479 225.479L231.31 219.116L236.564 212.269L241.201 204.991L245.186 197.336L248.489 189.362L251.084 181.131L252.952 172.706L254.078 164.149L254.455 155.527L254.078 146.905L252.952 138.348L251.084 129.923L248.489 121.692L245.186 113.718L241.201 106.063L236.564 98.7844L231.31 91.9375L225.479 85.5745L219.116 79.744L212.269 74.4902L204.991 69.8531L197.336 65.8681L189.362 62.5654L181.131 59.9702L172.706 58.1023L164.149 56.9758L155.527 56.5993L146.905 56.9758Z" fill="#599C74"/>
</svg>
