<svg width="312" height="311" viewBox="0 0 312 311" fill="none" xmlns="http://www.w3.org/2000/svg">
<path fill-rule="evenodd" clip-rule="evenodd" d="M115.758 30.1276C124.148 43.2968 120.273 60.7738 107.104 69.1635L98.7844 74.4638L91.9375 79.7176L85.5745 85.5482L79.744 91.9111L74.4902 98.758L69.8531 106.037L65.8681 113.692L62.5654 121.665L59.9702 129.896L58.1022 138.322L56.9758 146.878L56.5993 155.501L56.9758 164.123L58.1022 172.679L59.9702 181.105L62.5654 189.336L65.8681 197.309L69.8531 204.964L74.4902 212.243L79.744 219.09L85.5745 225.453L91.9375 231.284L98.7844 236.537L106.063 241.174L114.813 245.729C128.664 252.939 134.047 270.012 126.837 283.862C119.627 297.713 102.554 303.096 88.7035 295.886L77.7635 290.191L66.3203 282.901L55.5561 274.641L45.5528 265.475L36.3864 255.471L28.1267 244.707L20.8367 233.264L14.5717 221.229L9.37943 208.694L5.29945 195.754L2.3628 182.508L0.591822 169.056L0 155.501L0.591822 141.945L2.3628 128.494L5.29945 115.247L9.37943 102.307L14.5717 89.772L20.8367 77.7371L28.1267 66.294L36.3864 55.5298L45.5528 45.5264L55.5561 36.36L66.3203 28.1003L76.7224 21.4735C89.8916 13.0838 107.369 16.9584 115.758 30.1276Z" fill="#599C74"/>
<path fill-rule="evenodd" clip-rule="evenodd" d="M150.017 24.0861C153.397 8.84164 168.495 -0.776729 183.739 2.60288L195.78 5.27235L208.72 9.35233L221.255 14.5446L233.29 20.8096L244.733 28.0996L255.498 36.3593L265.501 45.5257L274.667 55.5291L282.927 66.2933L290.217 77.7364L296.482 89.7713L301.674 102.306L305.754 115.246L308.691 128.493L310.462 141.945L311.054 155.5L310.462 169.055L308.691 182.507L305.754 195.753L301.674 208.693L296.482 221.228L290.217 233.263L282.927 244.706L274.667 255.471L265.501 265.474L255.498 274.64L244.733 282.9L233.29 290.19L221.255 296.455L208.72 301.647L196.958 305.356C182.066 310.052 166.187 301.786 161.492 286.894C156.796 272.002 165.062 256.123 179.954 251.428L189.362 248.461L197.336 245.159L204.991 241.174L212.269 236.537L219.116 231.283L225.479 225.452L231.31 219.089L236.564 212.242L241.201 204.964L245.186 197.308L248.488 189.335L251.084 181.104L252.952 172.679L254.078 164.122L254.455 155.5L254.078 146.878L252.952 138.321L251.084 129.896L248.488 121.665L245.186 113.691L241.201 106.036L236.564 98.7572L231.31 91.9104L225.479 85.5474L219.116 79.7169L212.269 74.4631L204.991 69.826L197.336 65.841L189.362 62.5383L181.131 59.9431L171.5 57.808C156.256 54.4284 146.638 39.3306 150.017 24.0861Z" fill="#F6C358"/>
</svg>
