<svg width="312" height="312" viewBox="0 0 312 312" fill="none" xmlns="http://www.w3.org/2000/svg">
<path fill-rule="evenodd" clip-rule="evenodd" d="M115.758 30.127C124.148 43.2962 120.273 60.7732 107.104 69.1629L98.7844 74.4633L91.9375 79.7171L85.5746 85.5476L79.744 91.9106L74.4902 98.7574L69.8531 106.036L65.8681 113.691L62.5654 121.665L59.9702 129.896L58.1023 138.321L56.9758 146.878L56.5993 155.5L56.9758 164.122L58.1023 172.679L59.9702 181.104L62.5654 189.335L65.8681 197.309L69.8531 204.964L74.4902 212.243L79.744 219.089L85.5745 225.452L91.9375 231.283L98.7844 236.537L106.063 241.174L113.718 245.159L121.692 248.462L129.923 251.057L138.348 252.925L146.905 254.051L155.527 254.428L164.149 254.051L172.706 252.925L181.131 251.057L189.362 248.462L197.336 245.159L204.991 241.174L212.269 236.537L219.116 231.283L225.479 225.452L231.31 219.089L236.564 212.243L241.201 204.964L245.186 197.309L248.489 189.335L251.084 181.104L252.952 172.679L254.078 164.122L254.455 155.5L254.078 146.878L252.952 138.321L250.817 128.69C247.437 113.446 257.055 98.3482 272.3 94.9686C287.544 91.589 302.642 101.207 306.022 116.452L308.691 128.493L310.462 141.945L311.054 155.5L310.462 169.055L308.691 182.507L305.754 195.753L301.674 208.693L296.482 221.229L290.217 233.263L282.927 244.707L274.667 255.471L265.501 265.474L255.498 274.641L244.734 282.9L233.29 290.19L221.255 296.455L208.72 301.648L195.78 305.727L182.534 308.664L169.082 310.435L155.527 311.027L141.972 310.435L128.52 308.664L115.274 305.727L102.334 301.648L89.7984 296.455L77.7635 290.19L66.3204 282.9L55.5562 274.641L45.5528 265.474L36.3864 255.471L28.1267 244.707L20.8367 233.263L14.5717 221.229L9.37943 208.693L5.29945 195.753L2.3628 182.507L0.591822 169.055L0 155.5L0.591822 141.945L2.3628 128.493L5.29945 115.247L9.37943 102.307L14.5717 89.7715L20.8367 77.7365L28.1267 66.2934L36.3864 55.5292L45.5528 45.5259L55.5562 36.3595L66.3204 28.0998L76.7224 21.473C89.8916 13.0833 107.369 16.9578 115.758 30.127Z" fill="#599C74"/>
<path fill-rule="evenodd" clip-rule="evenodd" d="M150.017 24.0863C153.397 8.84179 168.495 -0.776577 183.739 2.60304L195.78 5.27251L208.72 9.35249L221.255 14.5447L233.29 20.8097L243.692 27.4365C256.862 35.8263 260.736 53.3032 252.346 66.4724C243.957 79.6417 226.48 83.5162 213.311 75.1265L204.991 69.8262L197.336 65.8411L189.362 62.5384L181.131 59.9433L171.5 57.8081C156.256 54.4285 146.638 39.3307 150.017 24.0863Z" fill="#F6C358"/>
</svg>
