<svg width="312" height="312" viewBox="0 0 312 312" fill="none" xmlns="http://www.w3.org/2000/svg">
<path fill-rule="evenodd" clip-rule="evenodd" d="M115.758 30.1276C124.148 43.2968 120.273 60.7738 107.104 69.1635L98.7844 74.4638L91.9375 79.7176L85.5745 85.5482L79.744 91.9111L74.4902 98.758L69.8531 106.037L65.8681 113.692L62.5654 121.665L59.9702 129.896L58.1023 138.322L56.9758 146.878L56.5993 155.501L56.9758 164.123L58.1023 172.679L59.9702 181.105L62.5654 189.336L65.8681 197.309L69.8531 204.964L74.4902 212.243L79.744 219.09L85.5745 225.453L91.9375 231.283L98.7844 236.537L106.063 241.174L113.718 245.159L121.692 248.462L129.923 251.057L138.348 252.925L146.905 254.052L155.527 254.428L164.149 254.052L172.706 252.925L181.131 251.057L189.362 248.462L197.336 245.159L204.991 241.174L212.269 236.537L219.116 231.284L225.479 225.453L232.144 218.18C242.693 206.668 260.577 205.887 272.089 216.436C283.602 226.985 284.383 244.869 273.834 256.381L265.501 265.475L255.498 274.641L244.734 282.901L233.29 290.191L221.255 296.456L208.72 301.648L195.78 305.728L182.534 308.665L169.082 310.436L155.527 311.027L141.972 310.436L128.52 308.665L115.274 305.728L102.334 301.648L89.7984 296.456L77.7635 290.191L66.3204 282.901L55.5562 274.641L45.5528 265.475L36.3864 255.471L28.1267 244.707L20.8367 233.264L14.5717 221.229L9.37943 208.694L5.29945 195.754L2.3628 182.508L0.591822 169.056L0 155.501L0.591822 141.945L2.3628 128.494L5.29945 115.247L9.37943 102.307L14.5717 89.772L20.8367 77.7371L28.1267 66.294L36.3864 55.5298L45.5528 45.5264L55.5562 36.36L66.3204 28.1003L76.7224 21.4735C89.8916 13.0838 107.369 16.9584 115.758 30.1276Z" fill="#599C74"/>
<path fill-rule="evenodd" clip-rule="evenodd" d="M150.019 24.0861C153.399 8.84164 168.497 -0.776729 183.741 2.60288L195.782 5.27235L208.722 9.35233L221.258 14.5446L233.293 20.8096L244.736 28.0996L255.5 36.3593L265.503 45.5257L274.67 55.5291L282.929 66.2933L290.219 77.7364L296.484 89.7713L301.677 102.306L305.757 115.246L308.693 128.493L310.464 141.945L311.002 154.267C311.683 169.866 299.589 183.065 283.99 183.746C268.39 184.427 255.192 172.333 254.511 156.733L254.08 146.878L252.954 138.321L251.086 129.896L248.491 121.665L245.188 113.691L241.203 106.036L236.566 98.7572L231.312 91.9104L225.481 85.5474L219.119 79.7169L212.272 74.4631L204.993 69.826L197.338 65.841L189.364 62.5383L181.133 59.9431L171.503 57.808C156.258 54.4284 146.64 39.3306 150.019 24.0861Z" fill="#F6C358"/>
</svg>
